HIERARCHY
ROOT Hips
{
	OFFSET 0.00000 0.00000 0.00000
	CHANNELS 6 Xposition Yposition Zposition Yrotation Zrotation Xrotation 
	JOINT Lumbar
	{
		OFFSET 0 0 0
		CHANNELS 3 Zrotation Xrotation Yrotation
		JOINT Neck
		{
			OFFSET 0.00 0.2701 0.00
			CHANNELS 3 Zrotation Xrotation Yrotation
			End Site
			{
				OFFSET 0.00 0.1379 0.00
			}
		}
		JOINT RightShoulder
		{
			OFFSET 0.0119 0.2289 0.1181
			CHANNELS 3 Zrotation Xrotation Yrotation
			JOINT RightElbow
			{
				OFFSET 0.00 -0.1475 0.00
				CHANNELS 2 Zrotation Yrotation
				JOINT RightWrist
				{
					OFFSET 0.00 -0.1605 0.00
					CHANNELS 2 Zrotation Xrotation
					End Site
					{
						OFFSET 0.0040 -0.1068 0.0006
					}
				}
			}
		}
		JOINT LeftShoulder
		{
			OFFSET 0.0119 0.2289 -0.1181
			CHANNELS 3 Zrotation Xrotation Yrotation
			JOINT LeftElbow
			{
				OFFSET 0.00 -0.1475 0.00
				CHANNELS 2 Zrotation Yrotation
				JOINT LeftWrist
				{
					OFFSET 0.00 -0.1605 0.00
					CHANNELS 2 Zrotation Xrotation
					End Site
					{
						OFFSET 0.0040 -0.1068 -0.0006
					}
				}
			}
		}
	}
	JOINT RightHip
	{
		OFFSET 0.0316 -0.0424 0.0458
		CHANNELS 3 Zrotation Xrotation Yrotation
		JOINT RightKnee
		{
			OFFSET 0.00 -0.2438 0.00
			CHANNELS 1 Zrotation
			JOINT RightAnkle
			{
				OFFSET 0.00 -0.2449 0.00
				CHANNELS 3 Zrotation Xrotation Yrotation
				End Site
				{
					OFFSET 0.1237 -0.0542 0.0051
				}
			}
		}
	}
	JOINT LeftHip
	{
		OFFSET 0.0316 -0.0424 -0.0458
		CHANNELS 3 Zrotation Xrotation Yrotation
		JOINT LeftKnee
		{
			OFFSET 0.00 -0.2438 0.00
			CHANNELS 1 Zrotation
			JOINT LeftAnkle
			{
				OFFSET 0.00 -0.2449 0.00
				CHANNELS 3 Zrotation Xrotation Yrotation
				End Site
				{
					OFFSET 0.1237 -0.0542 -0.0051
				}
			}
		}
	}
}
MOTION
Frames: 27
Frame Time: 0.02
-0.2077 -0.00623 0.06034 -94.04036 -28.04596 -6.40852 35.28093 0.07636 -6.3683 -1.61419 24.4709 -2.11994 47.07051 13.96493 25.36807 134.30118 136.16396 -62.87188 -9.00717 -24.00499 7.80296 -0.86328 50.58099 -62.20822 -19.86417 -1.29402 28.88433 8.26598 -23.06983 -17.6709 -6.31107 -0.96134 -2.69347 47.37339 15.9528 -6.93214 -60.58205 -10.84125 0.30012 2.57007
-0.20689 -0.00692 0.05642 -94.02878 -28.2437 -6.32852 34.01269 0.45781 -6.2867 -0.8921 24.40531 -2.11994 46.44498 14.05698 25.95777 134.30119 136.11933 -63.0975 -9.03552 -23.33278 7.76329 -0.44638 50.07692 -62.48337 -19.50952 -1.31254 29.56051 8.20416 -22.98376 -17.72861 -6.64963 -1.07533 -2.78269 49.47178 15.53352 -6.25968 -62.66995 -10.82942 0.54764 2.69161
-0.20593 -0.0076 0.05221 -94.0223 -28.46659 -6.26266 32.63159 0.86051 -6.24629 -0.05733 24.35427 -2.11994 45.73859 14.21005 26.73519 134.30122 136.08979 -63.46584 -9.10725 -22.6093 7.74379 -0.11866 49.49804 -62.79215 -19.14496 -1.32259 30.29278 8.13464 -22.92047 -17.78645 -6.41604 -1.06091 -2.75337 51.66003 15.16364 -5.32528 -64.70051 -10.73735 0.82582 2.82541
-0.20502 -0.00826 0.04811 -93.99972 -28.6989 -6.1853 31.31241 1.24815 -6.19414 0.74361 24.29985 -2.11994 45.07474 14.32889 27.42835 134.30124 136.05325 -63.75926 -9.15466 -21.89377 7.71511 0.23275 48.94568 -63.09561 -18.78995 -1.3326 31.02384 8.0629 -22.83159 -17.843 -6.46615 -1.11166 -2.78353 53.80751 14.75263 -4.52123 -66.65896 -10.67182 1.0801 2.94819
-0.20415 -0.00904 0.04407 -94.03578 -28.84198 -6.13097 29.93959 1.66165 -6.11263 1.47395 24.23312 -2.11994 44.37993 14.47504 28.12005 134.30126 136.01926 -64.10202 -9.22274 -21.24193 7.68712 0.65707 48.42406 -63.37281 -18.40913 -1.35667 31.6543 8.01649 -22.80681 -17.90604 -6.4559 -1.14244 -2.79828 55.97071 14.41371 -3.68104 -69.05894 -10.64771 1.37784 3.09457
-0.20319 -0.00957 0.03984 -93.95071 -29.17805 -6.03141 28.65729 2.0248 -6.10144 2.37678 24.19515 -2.11994 43.73494 14.57969 28.85707 134.30128 135.9823 -64.37135 -9.25765 -20.44554 7.66133 0.90821 47.82186 -63.69601 -18.085 -1.35209 32.50691 7.91497 -22.65505 -17.95495 -6.42037 -1.18088 -2.81376 58.11268 13.94148 -2.84428 -70.50566 -10.51991 1.59167 3.19447
-0.20202 -0.00939 0.03513 -93.53099 -30.03148 -5.80453 27.62534 2.24833 -6.281 3.73096 24.23138 -2.11994 43.22263 14.54438 29.68811 134.30128 135.93918 -64.42791 -9.19042 -19.26492 7.64829 0.69435 47.00518 -64.27777 -17.87316 -1.2475 33.95798 7.66499 -22.13406 -17.96686 -6.45351 -1.27253 -2.86051 60.21886 13.05778 -2.14969 -69.45558 -10.1071 1.56837 3.16325
-0.20078 -0.00895 0.03025 -92.98964 -31.07944 -5.53191 26.69444 2.41936 -6.52833 5.25353 24.29646 -2.11994 42.76858 14.46709 30.5555 134.30128 135.89103 -64.40122 -9.0886 -17.94091 7.63494 0.30952 46.11256 -64.8842 -17.72535 -1.11773 35.62978 7.35991 -21.48678 -17.96418 -6.47545 -1.37488 -2.91081 62.29018 12.04456 -1.45728 -67.4261 -9.59578 1.45927 3.08485
-0.19959 -0.00861 0.02548 -92.50231 -32.0454 -5.27845 25.73587 2.61084 -6.74093 6.69755 24.34882 -2.11994 42.30447 14.41564 31.39605 134.30128 135.84157 -64.39453 -9.00178 -16.68043 7.61379 0.00957 45.26051 -65.37933 -17.58163 -1.01579 37.20218 7.07799 -20.90568 -17.96646 -6.49802 -1.47073 -2.95819 64.3468 11.11174 -0.71388 -65.75932 -9.14163 1.38764 3.02769
-0.19834 -0.00832 0.02054 -92.01754 -32.98784 -5.02958 24.69579 2.81692 -6.97331 8.15602 24.39878 -2.11994 41.76763 14.33747 32.2859 134.30128 135.80892 -64.46454 -8.91757 -15.42263 7.62568 -0.31955 44.37741 -66.27293 -17.30626 -0.8483 38.77628 6.80137 -20.28826 -17.97512 -6.52078 -1.56942 -3.00727 66.53714 10.08979 -0.15902 -64.42656 -8.63306 1.32254 2.97131
-0.19718 -0.00788 0.01594 -91.50213 -34.02181 -4.76362 23.85151 2.98056 -7.17783 9.62047 24.46198 -2.11994 41.39787 14.30457 33.08034 134.30128 135.73852 -64.35773 -8.82163 -14.12888 7.5699 -0.63265 43.54551 -66.37373 -17.3094 -0.80657 40.39406 6.50371 -19.71626 -17.96788 -6.54706 -1.66607 -3.05496 68.43768 9.22192 0.76766 -62.1814 -8.21458 1.22429 2.90257
-0.19623 -0.00708 0.01222 -90.90092 -35.28905 -4.43151 23.51963 3.03337 -7.30801 11.08019 24.54119 -2.11994 41.46983 14.40304 33.59219 134.30128 135.57744 -63.7433 -8.67985 -12.7458 7.31468 -0.81374 42.84356 -64.00085 -18.16268 -1.16132 42.11555 6.13573 -19.30126 -17.91278 -6.59318 -1.7572 -3.09983 69.56004 8.81356 2.86763 -57.5268 -8.07736 1.04467 2.80552
-0.19537 -0.00614 0.00886 -90.27896 -36.63597 -4.08947 23.38266 3.04635 -7.40422 12.53554 24.63536 -2.11994 41.70927 14.54869 34.0079 134.30128 135.37693 -62.96092 -8.53108 -11.33677 6.99374 -0.9806 42.20193 -60.87715 -19.27738 -1.63612 43.86559 5.75328 -18.93717 -17.84353 -6.64461 -1.84589 -3.14334 70.38862 8.56467 5.31417 -52.01375 -8.03323 0.83647 2.69861
-0.19449 -0.0053 0.00541 -89.68663 -37.92827 -3.77145 23.15927 3.08174 -7.50298 13.97958 24.73115 -2.11994 41.87603 14.67533 34.47319 134.30128 135.18534 -62.28015 -8.39994 -9.95599 6.71101 -1.18412 41.55249 -58.28456 -20.20734 -2.02703 45.57863 5.39439 -18.54781 -17.78575 -6.69157 -1.93467 -3.18688 71.34277 8.24021 7.5039 -46.977 -7.94111 0.64832 2.59993
-0.19351 -0.00432 0.00167 -89.00429 -39.3065 -3.36887 22.92987 3.09726 -7.65777 15.48684 24.79157 -2.11994 42.03054 14.7913 34.91433 134.30128 135.02842 -61.48795 -8.20759 -8.49942 6.39269 -1.26762 40.81678 -54.9072 -21.41241 -2.53845 47.40317 4.962 -18.15858 -17.70641 -6.74651 -2.02854 -3.2332 72.33064 7.92183 10.10947 -41.53596 -7.86867 0.42752 2.48393
-0.19277 -0.0036 -0.00138 -88.50669 -40.52036 -3.14145 22.75843 3.1452 -7.68784 16.85776 24.9299 -2.11994 42.24929 14.93994 35.38325 134.30128 134.79393 -60.89139 -8.14029 -7.198 6.13334 -1.59369 40.2771 -52.96564 -22.11259 -2.83075 48.99647 4.6798 -17.78845 -17.66851 -6.78625 -2.11048 -3.27308 73.17726 7.63348 11.9356 -36.75379 -7.77967 0.26887 2.40209
-0.19272 -0.00365 -0.00267 -88.51946 -41.27471 -3.39302 22.69513 3.29424 -7.37366 17.86356 25.26944 -2.11994 42.60688 15.17856 35.94411 134.30129 134.32033 -60.85453 -8.43019 -6.31899 6.04959 -2.60779 40.25591 -55.34642 -21.29441 -2.46268 49.96706 4.81735 -17.41014 -17.75119 -6.78411 -2.16565 -3.29816 73.71946 7.36213 11.4862 -33.93872 -7.61408 0.29072 2.41873
-0.19291 -0.00397 -0.00326 -88.72002 -41.85711 -3.82223 22.68375 3.47706 -6.93659 18.72902 25.688 -2.11994 43.02261 15.44654 36.53685 134.30129 133.77597 -61.02365 -8.84412 -5.60013 6.02842 -3.86296 40.43172 -59.16586 -19.96965 -1.87496 50.69824 5.10623 -17.05838 -17.87556 -6.76639 -2.20788 -3.31632 74.12697 7.1207 10.24779 -31.83297 -7.43067 0.37611 2.46997
-0.19299 -0.00417 -0.00413 -88.83885 -42.50846 -4.17572 22.6508 3.6437 -6.56038 19.65171 26.07782 -2.11994 43.40985 15.69379 37.12115 134.3013 133.28735 -61.11448 -9.1952 -4.81672 5.98029 -4.99712 40.52312 -62.21196 -18.91639 -1.40492 51.52336 5.32555 -16.72767 -17.97924 -6.75499 -2.25229 -3.33586 74.58761 6.88447 9.39557 -29.44824 -7.26121 0.4317 2.50447
-0.1931 -0.00436 -0.00512 -88.94309 -43.20247 -4.50995 22.61601 3.81307 -6.16066 20.60397 26.44059 -2.11994 43.8117 15.97369 37.67956 134.3013 132.69992 -61.13937 -9.57478 -3.99727 5.92214 -6.17888 40.59531 -65.7349 -17.69942 -0.86354 52.41372 5.54899 -16.26133 -18.09008 -6.74685 -2.31204 -3.36271 75.07319 6.57633 8.43806 -26.84963 -7.07008 0.49046 2.54295
-0.1932 -0.00463 -0.00572 -89.12077 -43.76455 -4.92378 22.59502 3.9845 -5.78268 21.4589 26.87488 -2.11994 44.19474 16.19217 38.29697 134.3013 132.29935 -61.34689 -9.92282 -3.29164 5.90243 -7.3194 40.75308 -68.61813 -16.69795 -0.41714 53.10924 5.79832 -16.08004 -18.19574 -6.72828 -2.33705 -3.37284 75.47731 6.42057 7.50893 -24.8765 -6.91884 0.55771 2.58139
-0.19322 -0.00512 -0.00539 -89.47279 -44.01302 -5.53851 22.597 4.16044 -5.48202 22.09847 27.51586 -2.11994 44.51021 16.23154 39.10056 134.3013 132.45527 -62.0586 -10.16826 -2.85934 5.9579 -8.28082 41.10223 -69.3687 -16.42948 -0.28534 53.33838 6.09667 -16.70587 -18.28004 -6.68362 -2.26697 -3.33721 75.7019 6.69921 6.8399 -24.46231 -6.8803 0.63649 2.61231
-0.19322 -0.00569 -0.0047 -89.89008 -44.13218 -6.22278 22.61061 4.33615 -5.21009 22.64035 28.22031 -2.11994 44.80383 16.20819 39.95613 134.3013 132.79753 -62.93798 -10.37501 -2.53704 6.0529 -9.19238 41.52943 -69.43227 -16.39145 -0.25636 53.37664 6.41331 -17.61221 -18.35719 -6.6292 -2.16277 -3.28522 75.84801 7.12573 6.22626 -24.65723 -6.8824 0.72123 2.64191
-0.19321 -0.0062 -0.00416 -90.26489 -44.30499 -6.85902 22.61946 4.50755 -4.93352 23.21574 28.87738 -2.11994 45.10792 16.21498 40.76924 134.3013 133.03953 -63.7091 -10.58967 -2.16509 6.1407 -10.13253 41.91892 -69.82343 -16.23739 -0.18064 53.49412 6.71196 -18.37286 -18.4356 -6.57995 -2.07581 -3.2416 76.02373 7.46972 5.59393 -24.57341 -6.86661 0.80085 2.67138
-0.19329 -0.0068 -0.00363 -90.69629 -44.49521 -7.57042 22.62783 4.69885 -4.61698 23.83638 29.61698 -2.11994 45.41321 16.21628 41.66692 134.3013 133.34495 -64.62466 -10.84917 -1.79527 6.18619 -11.06127 42.32629 -70.19928 -16.11344 -0.09738 53.63689 7.05631 -19.21242 -18.52378 -6.52704 -1.98129 -3.1939 76.22132 7.87854 4.91012 -24.51915 -6.84782 0.89228 2.70487
-0.19316 -0.00724 -0.00301 -91.02796 -44.61851 -8.13998 22.63951 4.84808 -4.39231 24.33615 30.19682 -2.11994 45.70837 16.21324 42.39539 134.3013 133.56325 -65.27401 -11.00486 -1.44756 6.32716 -11.99226 42.71048 -70.42533 -15.98821 -0.05709 53.68242 7.30838 -19.95255 -18.58948 -6.47966 -1.8943 -3.15074 76.35504 8.18829 4.35291 -24.5423 -6.84512 0.9604 2.72954
-0.19248 -0.00722 -0.00223 -91.02526 -44.60759 -8.29529 22.65535 4.88173 -4.41436 24.56992 30.33456 -2.11994 45.9935 16.21568 42.68435 134.3013 133.49754 -65.16813 -10.87963 -1.11374 6.73208 -12.99392 43.02701 -70.39816 -15.80443 -0.11132 53.5268 7.29573 -20.35967 -18.59362 -6.44973 -1.83902 -3.1255 76.34478 8.17794 4.17194 -24.59949 -6.87721 0.95594 2.72704
